<svg xmlns="http://www.w3.org/2000/svg" version="1.1" xmlns:xlink="http://www.w3.org/1999/xlink" xmlns:svgjs="http://svgjs.dev/svgjs" width="100%" height="100%" viewBox="0 0 1000 600"><rect width="1000" height="600" x="0" y="0" fill="#ffff"/><g><rect width="333.3333333333333" height="333.3333333333333" rx="13.333333333333334" ry="13.333333333333334" y="205.2062531248962" fill="#ec8b5e" transform="matrix(0.6831196851556353,0,0,0.6831196851556351,0,45.96627244230207)" x="182.98403930664062"/><path d="M283.26872198168087 300.3511835533331L283.26872198168087 300.3511835533331Q299.41778928430944 296.87292290353616 313.8277262620395 296.87292290353616Q328.2376632397695 296.87292290353616 339.5109544529506 297.95987935659775Q350.7531897674728 299.0468358096592 362.08859277797166 302.09031387823154L362.08859277797166 302.09031387823154Q386.12585833996104 308.860499785872 391.8090877945399 320.444349985642L391.8090877945399 320.444349985642Q393.33082682882605 322.8356541823774 393.33082682882605 326.127579440221L393.33082682882605 326.127579440221Q393.33082682882605 335.7238521258214 376.4985297557017 346.87291974436675L376.4985297557017 346.87291974436675Q365.38051803581516 354.2952795238441 344.6351777316693 361.9350305939338L344.6351777316693 361.9350305939338Q395.5047397349491 364.76111737189376 413.6413845517473 376.7797501528885L413.6413845517473 376.7797501528885Q423.67243981857234 383.11515347930424 423.67243981857234 391.6244697118432L423.67243981857234 391.6244697118432Q423.67243981857234 403.42571120222556 407.0885899347192 416.0965178550572L407.0885899347192 416.0965178550572Q388.951945117921 429.63688967033795 360.7842450342978 438.58098848410145L360.7842450342978 438.58098848410145Q334.7904578567977 446.87291342602805 312.52337851836563 446.87291342602805L312.52337851836563 446.87291342602805Q295.50474605328793 446.87291342602805 283.26872198168087 441.8418578432861L283.26872198168087 441.8418578432861Q282.8339394004563 427.86670344678066 282.1817655286194 413.02198388782597L282.1817655286194 413.02198388782597Q280.4426352037209 380.07167541073204 280.4426352037209 357.46298118705204Q280.4426352037209 334.85428696337215 281.96437423800705 310.41329471881704L281.96437423800705 310.41329471881704Q279.57307004127165 310.41329471881704 277.585492527102 309.8542885429568Q275.62897091159124 309.32633826575545 275.62897091159124 305.5996304266873L275.62897091159124 305.5996304266873Q275.62897091159124 300.3511835533331 283.26872198168087 300.3511835533331ZM297.678658959411 380.07167541073204L302.9271058327652 430.9412374140119Q338.0823831146412 428.98471579850116 360.5668537436855 422.52508887744966Q383.0513243727298 416.0965178550572 392.98921194357814 408.5499344809442Q402.92709951442646 401.03440700549015 402.92709951442646 394.0468298072375L402.92709951442646 394.0468298072375Q402.92709951442646 384.85428380420274 389.82151028037026 379.419501538895L389.82151028037026 379.419501538895Q375.6289645932525 373.73627208431617 352.15070520712334 373.73627208431617Q328.7035017196531 373.73627208431617 297.678658959411 380.07167541073204L297.678658959411 380.07167541073204ZM323.2376635556865 311.06546859065395L323.2376635556865 311.06546859065395L317.7718253917199 311.06546859065395Q299.85257186553406 311.06546859065395 297.678658959411 314.76112053106317L297.678658959411 314.76112053106317L295.50474605328793 358.67416123474925Q315.1631299043722 358.67416123474925 343.33082998799546 349.26422394110216L343.33082998799546 349.26422394110216Q361.65381019674703 342.9288206146864 370.1631264292859 335.2890695445967L370.1631264292859 335.2890695445967Q374.54200814019094 331.37602631357515 374.54200814019094 327.21453589328246Q374.54200814019094 323.05304547298977 371.37430647698307 320.3511822896653Q368.20660481377513 317.61826320768205 363.2997728256688 315.84807698412476Q358.39294083756243 314.10894665922626 352.3680964977356 313.1462138008003Q346.37430805656777 312.15242504371554 340.69107860198886 311.71764246249086L340.69107860198886 311.71764246249086Q331.96437107883764 311.06546859065395 323.2376635556865 311.06546859065395Z " fill="#ffff" transform="matrix(0.6831196851556353,0,0,0.6831196851556351,0,45.96627244230207)"/><path d="M604.5924507348957 299.1228210106054L604.5924507348957 299.1228210106054Q615.0384132248801 296.872921397378 624.3594259082506 296.872921397378Q633.6804385916213 296.872921397378 640.9725239452065 297.5760150265115Q648.2445209093878 298.27910865564513 655.5767830417807 300.2477708172191L655.5767830417807 300.2477708172191Q671.1251964403343 304.62703970725096 674.8013717012326 312.1200089548744L674.8013717012326 312.1200089548744Q675.7857027820196 313.6668149389682 675.7857027820196 315.79618421577266L675.7857027820196 315.79618421577266Q675.7857027820196 322.00349654155184 664.8977957251514 329.2152283375217L664.8977957251514 329.2152283375217Q657.7061523185853 334.0163534050338 644.2871081968361 338.95809719837246L644.2871081968361 338.95809719837246Q677.1918900402867 340.78614063411976 688.9235094521152 348.5603473333965L688.9235094521152 348.5603473333965Q695.4120592295478 352.658378771775 695.4120592295478 358.1625974684206L695.4120592295478 358.1625974684206Q695.4120592295478 365.79618544187065 684.6848592879101 373.9922483186276L684.6848592879101 373.9922483186276Q672.9532398760815 382.7507860986914 654.7330706868204 388.53624224699035L654.7330706868204 388.53624224699035Q637.9190887558265 393.89984221780924 623.5157135532904 393.89984221780924L623.5157135532904 393.89984221780924Q612.5072761599993 393.89984221780924 604.5924507348957 390.64552313439106L604.5924507348957 390.64552313439106Q604.3112132832423 381.6057479026738 603.8893571057622 372.00349776764983L603.8893571057622 372.00349776764983Q602.7644072991485 350.689716610201 602.7644072991485 336.065369124223Q602.7644072991485 321.44102163824493 603.7487383799355 305.6314591774418L603.7487383799355 305.6314591774418Q602.2019323958416 305.6314591774418 600.9162754739974 305.26986816817305Q599.650706941557 304.9283655483082 599.650706941557 302.5177588198503L599.650706941557 302.5177588198503Q599.650706941557 299.1228210106054 604.5924507348957 299.1228210106054ZM613.9134634182664 350.689716610201L617.3084012275112 383.59449845365157Q640.048458032631 382.32892992121117 654.5924519609937 378.15054492521745Q669.1364458893565 373.9922483186276 675.5647304985775 369.1107696935003Q681.9930151077988 364.24937945777685 681.9930151077988 359.72949184191816L681.9930151077988 359.72949184191816Q681.9930151077988 353.7833285783887 673.5157147793884 350.2678604327209L673.5157147793884 350.2678604327209Q664.3353208218444 346.5916851718225 649.1484984325596 346.5916851718225Q633.9817644326786 346.5916851718225 613.9134634182664 350.689716610201L613.9134634182664 350.689716610201ZM630.4462078976069 306.0533153549219L630.4462078976069 306.0533153549219L626.9106513625353 306.0533153549219Q615.3196506765335 306.0533153549219 613.9134634182664 308.443833693976L613.9134634182664 308.443833693976L612.5072761599993 336.84881631097176Q625.2232266526148 336.84881631097176 643.4433958418758 330.7620343216156L643.4433958418758 330.7620343216156Q655.2955455901273 326.6640028832371 660.7997642867729 321.72225908989833L660.7997642867729 321.72225908989833Q663.632227192711 319.19112202501753 663.632227192711 316.49927784490626Q663.632227192711 313.80743366479487 661.5832114735217 312.0597437866629Q659.5341957543325 310.2919655191271 656.3602302285295 309.1469273231096Q653.1862647027266 308.0219775164959 649.2891171583863 307.39923744497753Q645.4120580034498 306.7564089840555 641.7358827425514 306.475171532402L641.7358827425514 306.475171532402Q636.0910453200793 306.0533153549219 630.4462078976069 306.0533153549219ZM705.5767842678787 366.07742289352404L705.5767842678787 366.07742289352404Q705.5767842678787 349.4040596883568 720.0002478598186 339.23933465002585L720.0002478598186 339.23933465002585Q731.4305414305899 331.1838904990957 747.5414297324503 329.4964657891752L747.5414297324503 329.4964657891752Q748.3851420874106 329.4964657891752 751.498842445002 329.4964657891752Q754.5924544131897 329.4964657891752 759.8154356581819 331.3245092249224L759.8154356581819 331.3245092249224Q771.4064363441837 335.2819219374742 775.6450865083889 345.30602824997834L775.6450865083889 345.30602824997834Q777.3325112183094 349.2634409625301 777.3325112183094 352.01555031085286Q777.3325112183094 354.7877480485795 777.1918924924827 355.9126978551932L777.1918924924827 355.9126978551932Q777.1918924924827 373.5703921411474 763.7728483707336 383.73511717947827L763.7728483707336 383.73511717947827Q751.3582237191753 393.05612986284893 732.6961099630303 393.05612986284893L732.6961099630303 393.05612986284893Q719.2770658412812 393.05612986284893 712.42692505458 386.84881753706975Q705.5767842678787 380.6214168218869 705.5767842678787 366.07742289352404ZM715.3397415181333 369.4723607027689L715.3397415181333 369.4723607027689Q715.3397415181333 378.2308984828327 720.0002478598186 381.3245104510204L720.0002478598186 381.3245104510204Q723.5157160054864 383.59449845365157 731.85239760807 383.59449845365157Q740.1890792106536 383.59449845365157 746.5370102622595 382.32892992121117Q752.9050297032692 381.043272999367 757.8467734966079 377.9496610311793L757.8467734966079 377.9496610311793Q768.4333547124189 371.15978541268953 768.4333547124189 356.8970289359802L768.4333547124189 356.8970289359802Q768.4333547124189 348.4197286075698 763.9134670965603 343.05612863675094L763.9134670965603 343.05612863675094Q758.9717233032216 337.27067248845196 750.9162791522914 337.27067248845196L750.9162791522914 337.27067248845196Q745.4120604556458 338.25500356923897 739.827488201385 339.37995337585266Q734.263004336528 340.50490318246636 729.3212605431892 343.75922226588455L729.3212605431892 343.75922226588455Q718.5739722121476 350.689716610201 715.3397415181333 369.4723607027689ZM786.9347613533334 366.07742289352404L786.9347613533334 366.07742289352404Q786.9347613533334 349.4040596883568 801.3582249452733 339.23933465002585L801.3582249452733 339.23933465002585Q812.7885185160446 331.1838904990957 828.8994068179051 329.4964657891752L828.8994068179051 329.4964657891752Q829.7431191728654 329.4964657891752 832.8568195304568 329.4964657891752Q835.9504314986444 329.4964657891752 841.1734127436366 331.3245092249224L841.1734127436366 331.3245092249224Q852.7644134296385 335.2819219374742 857.0030635938436 345.30602824997834L857.0030635938436 345.30602824997834Q858.6904883037641 349.2634409625301 858.6904883037641 352.01555031085286Q858.6904883037641 354.7877480485795 858.5498695779374 355.9126978551932L858.5498695779374 355.9126978551932Q858.5498695779374 373.5703921411474 845.1308254561883 383.73511717947827L845.1308254561883 383.73511717947827Q832.7162008046301 393.05612986284893 814.054087048485 393.05612986284893L814.054087048485 393.05612986284893Q800.635042926736 393.05612986284893 793.7849021400347 386.84881753706975Q786.9347613533334 380.6214168218869 786.9347613533334 366.07742289352404ZM796.697718603588 369.4723607027689L796.697718603588 369.4723607027689Q796.697718603588 378.2308984828327 801.3582249452733 381.3245104510204L801.3582249452733 381.3245104510204Q804.8736930909412 383.59449845365157 813.2103746935247 383.59449845365157Q821.5470562961084 383.59449845365157 827.8949873477143 382.32892992121117Q834.2630067887239 381.043272999367 839.2047505820626 377.9496610311793L839.2047505820626 377.9496610311793Q849.7913317978736 371.15978541268953 849.7913317978736 356.8970289359802L849.7913317978736 356.8970289359802Q849.7913317978736 348.4197286075698 845.271444182015 343.05612863675094L845.271444182015 343.05612863675094Q840.3297003886763 337.27067248845196 832.274256237746 337.27067248845196L832.274256237746 337.27067248845196Q826.7700375411006 338.25500356923897 821.1854652868398 339.37995337585266Q815.6209814219827 340.50490318246636 810.6792376286439 343.75922226588455L810.6792376286439 343.75922226588455Q799.9319492976024 350.689716610201 796.697718603588 369.4723607027689ZM886.0910514505691 379.3558482894464L886.0910514505691 379.3558482894464L886.3722889022225 356.7564102101535Q886.3722889022225 351.3928102393346 885.3879578214356 347.5760162526095L885.3879578214356 347.5760162526095L863.4916133712762 347.5760162526095L863.2103759196227 337.83314739175876L884.4036267406486 337.83314739175876L884.4036267406486 301.3928090132366Q884.8254829181287 300.1071520913923 886.0910514505691 298.8415835589519L886.0910514505691 298.8415835589519Q888.0798020015469 296.872921397378 889.4257240916025 296.872921397378Q890.7515577922544 296.872921397378 891.7559772624453 297.15415884903143Q892.7403083432322 297.43539630068483 893.8652581498459 299.1228210106054L893.8652581498459 299.1228210106054Q896.1352461524772 308.443833693976 896.1352461524772 327.2264777865439L896.1352461524772 327.2264777865439Q896.1352461524772 331.8869841282293 896.5571023299573 336.4068717440879L896.5571023299573 336.4068717440879Q901.0769899458159 335.844396840781 905.5968775616744 335.844396840781L905.5968775616744 335.844396840781Q905.5968775616744 335.844396840781 912.9291396940673 335.844396840781L912.9291396940673 335.844396840781Q915.6209838741787 335.844396840781 917.8708834874061 335.5631593891276L917.8708834874061 335.5631593891276L917.4490273099259 345.74797281686233L896.8383397816107 345.16540952415164L897.5414334107443 393.89984221780924Q894.9902079564596 395.02479202442294 893.1621645207124 395.02479202442294L893.1621645207124 395.02479202442294Q886.0910514505691 395.02479202442294 886.0910514505691 379.3558482894464ZM971.5470599744024 356.4751727585L971.5470599744024 356.4751727585Q987.0954733729559 356.4751727585 987.0954733729559 364.38999818360355L987.0954733729559 364.38999818360355Q987.0954733729559 370.3160730577292 978.4775543187188 378.2308984828327L978.4775543187188 378.2308984828327Q965.6209851002766 389.94242950525745 943.865259375944 397.0135425754007L943.865259375944 397.0135425754007Q942.8809282951569 397.0135425754007 941.6756249309279 395.02479202442294Q940.470321566699 393.05612986284893 939.8475814951807 391.9914452244467Q939.2047530342586 390.94684897544823 938.9235155826052 390.64552313439106L938.9235155826052 390.64552313439106Q955.1750226102923 385.2819231635722 965.6209851002766 377.6684235795259L965.6209851002766 377.6684235795259Q972.6720097810161 372.5659726709566 972.6720097810161 369.3317419769422Q972.6720097810161 366.07742289352404 964.3554165678362 366.07742289352404Q956.0187349652525 366.07742289352404 939.9078466633922 370.03483560607583L939.9078466633922 370.03483560607583Q932.5755845309993 369.75359815442243 927.1918961707767 364.81185436108365L927.1918961707767 364.81185436108365Q922.5313898290914 360.43258547105177 922.5313898290914 355.97296302340465Q922.5313898290914 351.5334289651613 925.082615283376 347.7969885360516Q927.6338407376605 344.04045971753794 931.8524025124619 340.78614063411976Q936.0910526766671 337.55190994010536 941.7559784885433 334.860065759994L941.7559784885433 334.860065759994Q955.5968787877724 328.2308972567347 970.4221101677887 328.2308972567347L970.4221101677887 328.2308972567347Q974.8013790578206 328.2308972567347 978.899410496199 329.074609611695L978.899410496199 329.074609611695Q982.2943483054439 329.074609611695 982.8568232087508 332.0476912434598Q983.4192981120576 335.0006844858208 983.4192981120576 341.79056010431054L983.4192981120576 341.79056010431054Q975.082616509474 337.97376611758546 964.6366540194896 337.97376611758546L964.6366540194896 337.97376611758546Q951.6394660752206 337.97376611758546 943.1621657468104 343.19674736257764L943.1621657468104 343.19674736257764Q934.4036279667466 348.2791098817431 934.1223905150931 356.4751727585L934.1223905150931 356.4751727585Q934.1223905150931 360.43258547105177 939.9078466633922 360.43258547105177L939.9078466633922 360.43258547105177L950.2332788169537 359.30763566443807Q963.4916158234721 356.4751727585 971.5470599744024 356.4751727585ZM1017.1677923104684 379.3558482894464L1017.1677923104684 379.3558482894464L1017.4490297621219 356.7564102101535Q1017.4490297621219 351.3928102393346 1016.4646986813349 347.5760162526095L1016.4646986813349 347.5760162526095L994.5683542311755 347.5760162526095L994.2871167795221 337.83314739175876L1015.480367600548 337.83314739175876L1015.480367600548 301.3928090132366Q1015.902223778028 300.1071520913923 1017.1677923104684 298.8415835589519L1017.1677923104684 298.8415835589519Q1019.1565428614463 296.872921397378 1020.5024649515019 296.872921397378Q1021.8282986521538 296.872921397378 1022.8327181223445 297.15415884903143Q1023.8170492031314 297.43539630068483 1024.9419990097454 299.1228210106054L1024.9419990097454 299.1228210106054Q1027.2119870123765 308.443833693976 1027.2119870123765 327.2264777865439L1027.2119870123765 327.2264777865439Q1027.2119870123765 331.8869841282293 1027.6338431898566 336.4068717440879L1027.6338431898566 336.4068717440879Q1032.1537308057152 335.844396840781 1036.6736184215738 335.844396840781L1036.6736184215738 335.844396840781Q1036.6736184215738 335.844396840781 1044.0058805539666 335.844396840781L1044.0058805539666 335.844396840781Q1046.6977247340778 335.844396840781 1048.9476243473055 335.5631593891276L1048.9476243473055 335.5631593891276L1048.5257681698254 345.74797281686233L1027.91508064151 345.16540952415164L1028.6181742706435 393.89984221780924Q1026.066948816359 395.02479202442294 1024.2389053806119 395.02479202442294L1024.2389053806119 395.02479202442294Q1017.1677923104684 395.02479202442294 1017.1677923104684 379.3558482894464ZM1123.6764329295008 341.36870392683045L1123.6764329295008 341.36870392683045Q1117.750358055375 337.13005376262527 1108.4293453720045 337.13005376262527L1108.4293453720045 337.13005376262527Q1099.6708075919407 337.13005376262527 1092.1778383443175 340.36428445663955L1092.1778383443175 340.36428445663955Q1078.0557005934347 346.3104477201691 1072.8327193484424 355.6314604035398L1072.8327193484424 355.6314604035398Q1070.5627313458112 359.870110567745 1070.5627313458112 364.67123563525695L1070.5627313458112 364.67123563525695Q1070.5627313458112 365.51494799021725 1070.5627313458112 369.3920071451537Q1070.5627313458112 373.289154689494 1071.9689186040785 379.85805802454183Q1073.3951942517494 386.42696135958965 1073.3951942517494 393.19674858867563L1073.3951942517494 393.19674858867563Q1070.4221126199845 393.33736731450233 1068.5940691842375 393.89984221780924Q1066.7459373590864 394.46231712111603 1065.480368826646 394.46231712111603Q1064.2148002942054 394.46231712111603 1063.29073438163 393.33736731450233Q1062.3666684690543 392.21241750788863 1061.2417186624407 388.95809842447045L1061.2417186624407 388.95809842447045Q1061.101099936614 388.11438606951015 1060.679243759134 384.1569733569585Q1060.2573875816538 380.1995606444067 1059.6145591207317 374.5547232219344Q1058.9918190492135 368.90988579946213 1058.2083718624644 362.2003637385876Q1057.4249246757158 355.4908416777131 1056.721831046582 348.9822035108766L1056.721831046582 348.9822035108766Q1055.1750250624882 334.860065759994 1054.331312707528 328.2308972567347L1054.331312707528 328.2308972567347Q1054.331312707528 324.8359594474898 1059.273056500867 324.8359594474898L1059.273056500867 324.8359594474898Q1062.2260497432276 324.8359594474898 1063.933562842552 327.30683134415926Q1065.6209875524726 329.7777032408286 1066.6053186332597 332.95166876663154Q1067.5896497140466 336.1256342924345 1067.951240723315 339.23933465002585Q1068.312831732584 342.35303500761734 1068.5940691842375 343.61860354005785L1068.5940691842375 343.61860354005785Q1087.2360945509786 326.9452403348905 1114.917895149437 326.9452403348905L1114.917895149437 326.9452403348905Q1118.0315955070287 326.9452403348905 1121.4064449268694 327.0858590607172L1121.4064449268694 327.0858590607172Q1122.2702456712336 326.9452403348905 1123.535814203674 326.9452403348905Q1124.8013827361146 326.9452403348905 1126.066951268555 328.6527534342149L1126.066951268555 328.6527534342149Q1127.6338456420526 330.6214155957888 1127.6338456420526 333.4538785017269L1127.6338456420526 333.4538785017269Q1127.6338456420526 340.50490318246636 1123.6764329295008 341.36870392683045ZM1189.6266153422287 369.4723607027689L1189.6266153422287 369.4723607027689Q1179.0400341264176 386.1256355185325 1161.3823398404634 390.08304823108415L1161.3823398404634 390.08304823108415Q1157.284308402085 390.94684897544823 1153.9697241504555 390.94684897544823Q1150.6551398988256 390.94684897544823 1148.4655054538098 390.866495417833Q1146.2758710087937 390.80623024962154 1143.5840268286825 390.22366695691085Q1140.912271037975 389.66119205360405 1138.6422830353438 388.39562352116366L1138.6422830353438 388.39562352116366Q1133.4193017903515 385.4225418893989 1133.4193017903515 380.05894191858L1133.4193017903515 380.05894191858Q1132.856826887045 377.5278048536992 1132.856826887045 374.33375093849247Q1132.856826887045 371.15978541268953 1134.263014145312 365.93680416769735Q1135.689289792983 360.71382292270516 1139.4257302220926 354.6471293227528Q1143.1621706512024 348.5603473333965 1148.5257706220211 343.47798481423104L1148.5257706220211 343.47798481423104Q1159.6949151305428 332.7507848725934 1172.6921030748117 329.6370845150019L1172.6921030748117 329.6370845150019Q1176.5088970615368 328.7933721600416 1179.6828625873397 328.7933721600416Q1182.856828113143 328.7933721600416 1185.4080535674273 329.2152283375217L1185.4080535674273 329.2152283375217Q1193.5840280547804 329.2152283375217 1196.4164909607184 340.36428445663955L1196.4164909607184 340.36428445663955Q1198.2445343964657 347.4353975267828 1198.6061254057345 360.07099446178313Q1198.967716415003 372.7266797861871 1199.309219034868 379.57682057288844Q1199.6708100441367 386.42696135958965 1201.076997302404 392.07179878206193L1201.076997302404 392.07179878206193L1192.7403156998203 392.07179878206193Q1192.1778407965135 388.25500479533696 1191.8966033448598 385.2819231635722Q1191.6153658932064 382.32892992121117 1191.3341284415528 379.7777044669266L1191.3341284415528 379.7777044669266Q1190.6310348124196 373.8516295928008 1189.6266153422287 369.4723607027689ZM1189.0641404389216 347.5760162526095L1189.0641404389216 347.5760162526095Q1189.0641404389216 339.37995337585266 1181.0287846773954 339.37995337585266L1181.0287846773954 339.37995337585266Q1180.0243652072045 339.23933465002585 1179.0400341264176 339.23933465002585L1179.0400341264176 339.23933465002585Q1168.7346903622602 339.23933465002585 1157.284308402085 349.1228222367034L1157.284308402085 349.1228222367034Q1151.9207084312661 353.642709852562 1148.103914444541 359.30763566443807L1148.103914444541 359.30763566443807Q1142.4590770220689 367.34299142596444 1142.4590770220689 373.7110108669741L1142.4590770220689 373.7110108669741Q1142.4590770220689 382.0476924695578 1152.0613271570928 383.59449845365157L1152.0613271570928 383.59449845365157Q1164.7772776497084 383.31326100199817 1176.36827833571 372.00349776764983L1176.36827833571 372.00349776764983Q1181.310022129049 367.06175397431105 1184.5442528230633 361.27629782601207L1184.5442528230633 361.27629782601207Q1189.0641404389216 353.5020911267353 1189.0641404389216 347.5760162526095ZM1221.2658286532387 336.2662530182612L1221.2658286532387 336.2662530182612Q1240.4904173126906 329.6370845150019 1254.4719363377467 329.6370845150019L1254.4719363377467 329.6370845150019Q1272.2702493495276 329.6370845150019 1278.1963242236534 338.95809719837246L1278.1963242236534 338.95809719837246Q1280.8881684037647 343.33736608840434 1280.8881684037647 348.4197286075698L1280.8881684037647 348.4197286075698Q1280.8881684037647 355.4908416777131 1276.4285459561174 362.96372253593256Q1271.9890118978742 370.4566917835559 1264.6366613760774 376.5233853835084L1264.6366613760774 376.5233853835084Q1247.54144199343 390.50490440856436 1223.1139604783898 393.89984221780924L1223.1139604783898 393.89984221780924Q1223.1139604783898 395.4667365913068 1223.1742256466014 398.92193956876315Q1223.2545792042165 402.3771425462196 1223.314844372428 406.61579271042467Q1223.3951979300432 410.85444287462985 1223.4554630982548 415.65556794214194Q1223.53581665587 420.4566930096539 1223.6764353816966 424.8359618996858L1223.6764353816966 424.8359618996858Q1224.0982915591767 435.70378056715026 1224.319263842619 437.27067494064795Q1224.5201477366572 438.81748092474174 1224.5201477366572 439.80181200552875L1224.5201477366572 439.80181200552875Q1224.5201477366572 443.3373685406003 1222.2702481234296 445.10514680813617Q1220.0002601207984 446.872925075672 1216.3240848599003 446.872925075672L1216.3240848599003 446.872925075672Q1215.6209912307663 446.872925075672 1214.9178976016328 446.872925075672L1214.9178976016328 446.872925075672L1212.6679979884057 333.3132597759002Q1213.933566520846 331.4651279507491 1216.0428474082464 331.6057466765758Q1218.1722166850514 331.7463654024025 1219.4377852174916 332.7507848725934Q1220.703353749932 333.7351159533803 1221.2658286532387 336.2662530182612ZM1262.527380488677 341.22808520100364L1262.527380488677 341.22808520100364Q1257.8668741469914 338.81747847254576 1252.563539344384 338.81747847254576Q1247.2602045417766 338.81747847254576 1242.0372232967843 339.80180955333276L1242.0372232967843 339.80180955333276Q1230.1649851591292 342.07179755596394 1224.5201477366572 349.8259158658369L1224.5201477366572 349.8259158658369Q1221.9890106717762 353.5020911267353 1221.9890106717762 358.8656910975541L1221.9890106717762 358.8656910975541Q1221.9890106717762 359.44825439026476 1221.9890106717762 360.01072929357167L1221.9890106717762 360.01072929357167L1221.9890106717762 384.43821080861187Q1251.0769985285015 377.9496610311793 1263.2304741178104 366.35866034517744L1263.2304741178104 366.35866034517744Q1270.2814987985498 359.72949184191816 1270.2814987985498 352.658378771775L1270.2814987985498 352.658378771775Q1270.2814987985498 345.16540952415164 1262.527380488677 341.22808520100364Z " fill="#ec8b5e" transform="matrix(0.6831196851556353,0,0,0.6831196851556351,0,45.96627244230207)"/></g></svg>